<svg width="169" height="147" viewBox="0 0 169 147" fill="none" xmlns="http://www.w3.org/2000/svg">
<circle cx="67.9807" cy="78.4197" r="67.9807" fill="#F8EDE3"/>
<mask id="mask0" mask-type="alpha" maskUnits="userSpaceOnUse" x="0" y="-29" width="153" height="176">
<path d="M149.243 89.3338C150.709 104.615 134.781 92.9316 132.599 99.5959C123.698 126.772 98.1317 146.4 67.9807 146.4C30.436 146.4 0 115.964 0 78.4198C0 40.875 0 -29 67.9807 -29C116.045 -29 145.118 -2.40232 149.243 31.3342C149.732 35.3351 152.274 50.4822 152.523 54.3892C153.145 64.1337 149.243 81.4823 149.243 89.3338Z" fill="#EFA6B4"/>
</mask>
<g mask="url(#mask0)">
<rect x="15.6523" y="10.439" width="89" height="156" rx="11" fill="#292C32"/>
<rect x="24.4805" y="1.41974" width="87" height="154" rx="10" fill="white" stroke="#292C32" stroke-width="2"/>
<rect x="47.7422" y="27.7003" width="94.1071" height="62" rx="3" fill="#292C32"/>
<rect x="53.4297" y="23.0712" width="92.1071" height="60" rx="2" fill="#1E756B" stroke="#292C32" stroke-width="2"/>
<circle cx="123.843" cy="69.1248" r="6.08929" fill="white"/>
<circle cx="131.96" cy="69.1248" r="6.08929" fill="#FFD584"/>
<rect x="64.5078" y="68.1248" width="26.8732" height="2" rx="1" fill="white"/>
<path d="M49.4805 1.83496H86.4805V3.63827C86.4805 5.84741 84.6896 7.63827 82.4805 7.63827H53.4805C51.2713 7.63827 49.4805 5.84741 49.4805 3.63827V1.83496Z" fill="#292C32"/>
</g>
</svg>
